<?xml version="1.0" standalone="no"?>
<!DOCTYPE svg PUBLIC "-//W3C//DTD SVG 20010904//EN"
 "http://www.w3.org/TR/2001/REC-SVG-20010904/DTD/svg10.dtd">
<svg version="1.0" xmlns="http://www.w3.org/2000/svg"
 width="512.000000pt" height="512.000000pt" viewBox="0 0 512.000000 512.000000"
 preserveAspectRatio="xMidYMid meet">
<metadata>
Created by potrace 1.14, written by Peter Selinger 2001-2017
</metadata>
<g transform="translate(0.000000,512.000000) scale(0.100000,-0.100000)"
fill="#000000" stroke="none">
<path d="M1256 3974 c-22 -8 -48 -22 -59 -32 -20 -17 -67 -107 -67 -128 0 -7
30 -14 78 -19 76 -7 102 -13 255 -62 44 -13 81 -22 84 -19 3 3 -14 18 -38 33
-24 15 -62 48 -84 73 l-39 45 49 -47 c33 -31 69 -54 105 -66 31 -11 78 -31
106 -45 28 -14 88 -33 133 -41 92 -18 241 -21 241 -7 0 6 -25 26 -55 47 -53
35 -110 94 -134 141 -15 30 -14 82 3 116 l15 27 -277 -1 c-215 0 -286 -4 -316
-15z m118 -71 c9 -18 14 -33 12 -33 -6 0 -36 55 -36 66 0 11 5 3 24 -33z"/>
<path d="M1844 3954 c-24 -57 -10 -100 56 -165 31 -31 81 -69 111 -85 47 -24
70 -29 184 -35 72 -5 170 -17 220 -27 87 -19 90 -19 120 -1 37 23 96 24 141 3
28 -14 42 -14 78 -5 55 13 139 15 131 2 -3 -5 10 -22 30 -37 28 -21 35 -33 35
-60 0 -27 -4 -34 -20 -34 -16 0 -20 -7 -20 -35 0 -46 -23 -101 -48 -114 -11
-6 -38 -13 -61 -17 -43 -7 -57 -32 -23 -41 13 -3 17 -12 14 -41 -2 -30 3 -43
28 -70 17 -18 36 -30 41 -26 5 3 7 9 4 13 -2 5 2 17 11 27 14 18 15 17 9 -12
-4 -23 -1 -35 15 -49 11 -10 20 -24 20 -32 0 -7 11 -13 25 -13 27 0 32 9 13
28 -9 9 -8 12 5 12 10 0 17 8 17 19 0 10 6 23 13 29 9 8 25 -3 62 -40 28 -28
43 -47 35 -43 -9 5 -7 -1 5 -14 l20 -23 5 83 5 84 540 5 c397 4 546 8 561 17
44 26 49 59 49 365 0 275 -1 288 -21 315 -11 15 -32 34 -45 40 -19 10 -284 13
-1187 13 l-1163 0 -15 -36z m776 -267 c0 -12 0 -11 -24 28 l-17 30 20 -24 c12
-13 21 -28 21 -34z m354 -213 c9 -22 -3 -32 -14 -14 -12 19 -12 30 -1 30 5 0
12 -7 15 -16z m-124 -164 c-14 -11 -29 -20 -35 -20 -5 0 1 9 15 20 14 11 30
20 35 20 6 0 -1 -9 -15 -20z"/>
<path d="M1111 3762 c-14 -27 -338 -871 -361 -942 -98 -302 -94 -255 -98 -961
-2 -410 1 -634 7 -652 6 -15 25 -36 43 -47 31 -19 51 -20 376 -20 278 0 348 3
371 14 56 30 56 24 61 360 l5 311 348 0 347 0 3 -300 c2 -329 3 -332 64 -372
25 -16 60 -18 393 -18 338 0 368 1 394 18 54 36 56 50 56 497 l0 410 308 0
307 1 -30 27 -30 28 64 -4 c63 -4 64 -4 57 19 -4 13 -8 33 -7 44 0 11 -14 35
-31 52 -36 37 -81 44 -97 16 -8 -16 -12 -16 -50 2 -48 21 -50 30 -3 13 17 -7
34 -10 37 -6 10 10 -18 58 -34 59 -9 1 -5 4 9 8 16 4 25 14 25 26 0 16 -8 21
-37 23 -35 3 -38 1 -38 -23 0 -20 -4 -25 -17 -21 -10 3 -47 12 -82 20 -88 20
-90 30 -4 22 84 -8 113 2 113 40 0 23 -3 25 -29 19 -28 -6 -30 -4 -28 22 2 22
-3 29 -21 31 -17 3 -22 9 -20 25 2 17 -6 26 -37 41 -22 10 -55 32 -74 48 -19
17 -41 28 -51 25 -10 -2 -39 7 -66 22 -35 19 -50 35 -59 61 -26 78 -67 30 -69
-81 -1 -84 -18 -105 -88 -114 -42 -6 -59 -15 -101 -56 -45 -43 -49 -51 -43
-80 6 -29 14 -45 51 -95 13 -18 -21 -62 -66 -89 l-34 -19 33 37 c37 43 41 73
12 82 -29 9 -48 43 -55 100 -6 49 -6 51 37 94 24 24 60 55 81 69 50 33 48 46
-8 39 -44 -6 -95 -29 -144 -64 l-25 -18 18 27 c29 45 99 72 201 78 71 4 90 8
93 21 3 17 -36 39 -69 39 -32 0 -17 23 30 47 24 12 49 24 55 26 14 5 -20 57
-38 57 -7 0 -19 7 -26 15 -7 8 -23 15 -36 15 -18 0 -24 5 -24 23 0 13 -5 28
-12 35 -19 19 0 27 20 9 10 -10 25 -17 33 -17 9 1 5 8 -10 21 -15 12 -33 18
-45 15 -13 -3 -31 5 -54 25 -19 17 -45 35 -58 41 -13 6 -24 16 -24 23 0 17 75
86 85 78 4 -5 5 -2 1 5 -5 8 -40 34 -78 58 -74 48 -105 51 -92 12 4 -13 8 -50
9 -83 1 -34 9 -74 18 -92 18 -33 18 -33 -7 -33 -14 0 -27 -3 -29 -7 -5 -8 22
-99 35 -118 17 -26 -21 -253 -63 -372 -27 -75 -41 -273 -26 -360 8 -47 8 -71
-1 -96 -20 -56 -15 -381 8 -517 17 -102 17 -118 4 -137 -18 -28 -55 -30 -77
-5 -13 14 -17 36 -15 98 4 234 -18 517 -46 572 -10 18 -9 42 1 105 8 45 12
108 9 139 -5 51 -46 176 -68 204 -12 16 -47 154 -48 186 0 31 -17 45 -33 29
-6 -6 -20 -11 -30 -11 -14 0 -17 4 -12 18 4 9 11 35 15 57 4 22 9 47 11 55 3
11 -4 15 -22 15 -15 0 -36 9 -48 19 -18 17 -29 18 -88 10 -38 -4 -87 -8 -109
-7 l-42 0 13 -41 c30 -94 65 -210 65 -218 0 -4 -137 -8 -305 -8 -168 0 -305 4
-305 8 0 4 13 51 30 102 27 86 28 96 14 105 -9 6 -26 18 -38 27 -20 17 -19 17
18 2 21 -8 39 -14 40 -12 16 27 49 151 48 182 -1 26 1 36 7 27 6 -9 17 15 36
75 15 49 36 101 47 117 24 34 11 35 -53 2 -72 -36 -126 -82 -149 -129 -14 -29
-20 -35 -20 -20 0 54 89 136 187 175 46 18 79 23 163 23 58 1 126 -3 153 -7
26 -5 47 -4 47 0 0 16 -65 47 -110 54 l-45 6 40 2 c22 0 63 -9 93 -21 49 -20
57 -21 115 -9 34 7 67 17 72 21 16 13 184 60 215 60 15 0 39 9 53 20 14 11 30
20 36 20 20 0 11 19 -20 41 -17 12 -52 26 -78 31 -27 5 -56 19 -71 33 l-25 25
40 0 c31 1 44 6 58 26 11 14 16 28 13 31 -8 8 -135 7 -173 -1 -20 -5 -33 -14
-33 -23 0 -14 -3 -13 -25 1 -39 26 -73 20 -112 -19 -31 -31 -35 -40 -30 -73
l6 -37 -20 25 c-16 18 -19 32 -14 58 l6 35 -42 -7 c-57 -9 -178 -67 -212 -101
-15 -15 -30 -40 -33 -54 -3 -14 -10 -44 -17 -66 l-12 -40 -3 37 c-4 47 18 91
76 150 25 26 43 50 40 53 -8 9 -145 -48 -213 -88 -65 -38 -133 -104 -158 -152
-9 -16 -16 -25 -17 -20 0 6 13 33 29 61 43 75 128 147 237 201 93 46 104 62
44 63 -14 0 -65 11 -113 25 -48 14 -92 23 -97 20 -5 -3 -36 -8 -67 -11 -111
-9 -295 -74 -367 -129 -65 -49 -75 -50 -22 -1 27 25 79 59 114 76 70 33 220
80 258 80 36 0 37 16 1 30 -17 7 -63 28 -101 47 -115 57 -276 81 -295 45z
m1239 -1153 c0 -11 -6 -19 -14 -19 -8 0 -18 -9 -21 -20 -3 -11 -13 -20 -22
-20 -15 0 -92 -59 -467 -360 -296 -237 -285 -229 -329 -241 -63 -17 -78 -7
-32 21 22 14 43 25 47 25 3 0 10 4 15 9 5 5 2 6 -7 2 -17 -8 9 15 61 56 193
152 500 395 608 481 106 86 136 105 147 96 8 -6 14 -20 14 -30z m1084 -128 c3
-5 -8 -11 -26 -13 -28 -5 -29 -4 -13 9 22 15 32 16 39 4z m66 -71 c-19 -13
-30 -13 -30 0 0 6 10 10 23 10 18 0 19 -2 7 -10z"/>
<path d="M1485 3700 c8 -13 89 -50 111 -50 43 0 -23 43 -85 55 -25 5 -32 4
-26 -5z"/>
<path d="M2734 3542 c8 -50 -9 -109 -34 -117 -24 -8 -25 -18 -5 -39 22 -22 52
-29 91 -21 66 12 89 60 63 134 -6 17 -18 31 -26 31 -8 0 -24 11 -35 25 -11 14
-29 25 -40 25 -18 0 -20 -4 -14 -38z"/>
<path d="M2413 3265 c-66 -53 -225 -87 -285 -62 -19 8 -77 17 -129 20 -52 3
-84 3 -73 1 34 -8 55 -38 79 -111 14 -44 27 -67 36 -66 8 1 49 12 91 24 67 19
81 20 108 9 28 -12 31 -17 26 -43 -8 -42 8 -57 62 -57 40 0 49 5 88 44 45 47
45 45 58 209 5 67 -8 74 -61 32z"/>
<path d="M2240 3267 c-61 -12 -74 -27 -24 -27 36 0 87 22 74 32 -3 3 -25 0
-50 -5z"/>
<path d="M3100 3001 c0 -11 5 -23 10 -26 6 -4 10 5 10 19 0 14 -4 26 -10 26
-5 0 -10 -9 -10 -19z"/>
<path d="M3027 2917 c-3 -9 1 -18 10 -21 22 -9 25 -3 10 19 -12 15 -15 16 -20
2z"/>
<path d="M3450 2791 c0 -22 11 -41 41 -70 23 -22 47 -50 53 -63 15 -31 48 -30
56 1 9 40 32 39 28 0 -3 -30 0 -34 22 -37 14 -2 29 -10 33 -18 11 -19 46 -18
54 2 5 14 9 13 24 -7 10 -13 19 -29 19 -35 0 -18 35 -44 58 -44 25 0 26 3 11
33 -7 15 -2 13 15 -8 30 -34 32 -45 11 -45 -8 0 -17 -12 -20 -27 -4 -16 -10
-36 -16 -45 -5 -10 -9 -20 -9 -23 0 -10 68 -35 95 -35 l26 0 -3 195 -3 195
-28 27 -27 28 -220 3 -220 3 0 -30z m255 -18 c3 -15 15 -45 26 -67 24 -50 24
-59 -1 -46 -11 6 -20 17 -20 25 0 8 -5 15 -10 15 -6 0 -8 11 -4 25 4 17 2 27
-8 30 -10 4 -13 15 -10 30 5 30 17 25 27 -12z"/>
<path d="M3414 2665 c-21 -32 -15 -59 14 -63 44 -7 79 47 50 76 -19 19 -46 14
-64 -13z"/>
<path d="M3465 2570 c-10 -16 15 -40 41 -40 19 0 24 5 24 25 0 21 -5 25 -29
25 -17 0 -33 -5 -36 -10z"/>
</g>
</svg>
